<svg xmlns="http://www.w3.org/2000/svg" xmlns:xlink="http://www.w3.org/1999/xlink" width="1920" zoomAndPan="magnify" viewBox="0 0 1440 809.999993" height="1080" preserveAspectRatio="xMidYMid meet" version="1.0"><rect x="-144" width="1728" fill="#ffffff" y="-80.999999" height="971.999992" fill-opacity="1"/><rect x="-144" width="1728" fill="#ffffff" y="-80.999999" height="971.999992" fill-opacity="1"/><rect x="-144" width="1728" fill="#ef511b" y="-80.999999" height="971.999992" fill-opacity="1"/><path fill="#fab6c0" d="M 82.6875 94.546875 C 46.066406 99.292969 9.398438 103.65625 -27.550781 104.523438 C -27.550781 73.382812 -27.550781 42.238281 -27.550781 11.101562 C 5.628906 11.191406 38.726562 9.558594 71.835938 7.5625 C 75.539062 36.550781 79.757812 65.460938 82.6875 94.546875 " fill-opacity="1" fill-rule="nonzero"/><path fill="#fab6c0" d="M 302.085938 75.234375 C 268.902344 71.898438 235.722656 75.21875 202.699219 78.773438 C 195.191406 52.414062 185.160156 26.972656 176.109375 1.125 C 207.972656 -0.351562 239.816406 -0.929688 271.707031 -0.160156 C 282.050781 24.921875 293.527344 49.453125 302.085938 75.234375 " fill-opacity="1" fill-rule="nonzero"/><path fill="#fab6c0" d="M 442.269531 102.914062 C 418.453125 100.132812 395.382812 95.003906 372.175781 89.074219 C 367.65625 60.972656 361.449219 33.210938 355.902344 5.304688 C 383.945312 7.671875 411.964844 9.808594 440.101562 10.773438 C 440.851562 41.488281 441.769531 72.191406 442.269531 102.914062 " fill-opacity="1" fill-rule="nonzero"/><path fill="#fab6c0" d="M 661.667969 83.601562 C 621.671875 88.914062 581.75 94.761719 541.664062 99.375 C 540.121094 69.378906 537.734375 39.453125 535.691406 9.492188 C 570.472656 7.707031 605.207031 5.234375 639.964844 3.050781 C 647.355469 29.882812 655.570312 56.433594 661.667969 83.601562 " fill-opacity="1" fill-rule="nonzero"/><path fill="#fab6c0" d="M 848.511719 83.601562 C 823.136719 77.832031 797.949219 74.417969 771.90625 73.625 C 762.832031 48.117188 750.460938 24.164062 739.359375 -0.484375 C 768.585938 -0.550781 797.671875 0.847656 826.808594 3.050781 C 834.199219 29.882812 842.414062 56.433594 848.511719 83.601562 " fill-opacity="1" fill-rule="nonzero"/><path fill="#fab6c0" d="M 1002.800781 102.914062 C 973.296875 104.90625 944.511719 104.730469 915.351562 99.375 C 913.808594 69.378906 911.421875 39.453125 909.378906 9.492188 C 939.789062 11.148438 970.175781 11.441406 1000.632812 10.773438 C 1001.382812 41.488281 1002.300781 72.191406 1002.800781 102.914062 " fill-opacity="1" fill-rule="nonzero"/><path fill="#fab6c0" d="M 1236.304688 75.234375 C 1197.21875 78.398438 1158.390625 83.734375 1119.550781 89.074219 C 1115.03125 60.972656 1108.824219 33.210938 1103.277344 5.304688 C 1137.476562 3.058594 1171.660156 0.875 1205.925781 -0.160156 C 1216.269531 24.921875 1227.746094 49.453125 1236.304688 75.234375 " fill-opacity="1" fill-rule="nonzero"/><path fill="#fab6c0" d="M 1390.601562 94.546875 C 1368.328125 89.125 1346.265625 83.136719 1323.761719 78.773438 C 1316.253906 52.414062 1306.222656 26.972656 1297.179688 1.125 C 1324.730469 2.851562 1352.222656 5.363281 1379.75 7.5625 C 1383.445312 36.550781 1387.664062 65.460938 1390.601562 94.546875 " fill-opacity="1" fill-rule="nonzero"/><path fill="#fab6c0" d="M 176.109375 1.125 C 141.332031 2.902344 106.59375 5.378906 71.835938 7.5625 C 68.207031 -22.363281 65.753906 -52.160156 65.871094 -82.320312 C 97.007812 -82.320312 128.152344 -82.320312 159.292969 -82.320312 C 160.675781 -53.351562 166.984375 -26.320312 176.109375 1.125 " fill-opacity="1" fill-rule="nonzero"/><path fill="#fab6c0" d="M 355.902344 5.304688 C 327.859375 2.941406 299.832031 0.808594 271.707031 -0.160156 C 261.195312 -27.035156 254.125 -53.386719 252.714844 -82.320312 C 283.851562 -82.320312 314.996094 -82.320312 346.136719 -82.320312 C 346.5625 -52.675781 350.390625 -23.792969 355.902344 5.304688 " fill-opacity="1" fill-rule="nonzero"/><path fill="#fab6c0" d="M 535.691406 9.492188 C 503.835938 10.964844 471.988281 11.542969 440.101562 10.773438 C 439.398438 -20.261719 439.039062 -51.277344 439.558594 -82.320312 C 470.695312 -82.320312 501.839844 -82.320312 532.980469 -82.320312 C 532.488281 -51.652344 533.730469 -21.113281 535.691406 9.492188 " fill-opacity="1" fill-rule="nonzero"/><path fill="#fab6c0" d="M 739.359375 -0.484375 C 706.175781 -0.578125 673.078125 1.058594 639.964844 3.050781 C 632.550781 -25.167969 627.359375 -53.09375 626.402344 -82.320312 C 657.539062 -82.320312 688.683594 -82.320312 719.824219 -82.320312 C 720.742188 -53.1875 727.996094 -27.1875 739.359375 -0.484375 " fill-opacity="1" fill-rule="nonzero"/><path fill="#fab6c0" d="M 909.378906 9.492188 C 881.820312 7.765625 854.335938 5.253906 826.808594 3.050781 C 819.394531 -25.167969 814.203125 -53.09375 813.246094 -82.320312 C 844.382812 -82.320312 875.527344 -82.320312 906.667969 -82.320312 C 906.175781 -51.652344 907.417969 -21.113281 909.378906 9.492188 " fill-opacity="1" fill-rule="nonzero"/><path fill="#fab6c0" d="M 1103.277344 5.304688 C 1069.078125 7.554688 1034.886719 9.742188 1000.632812 10.773438 C 999.929688 -20.261719 999.570312 -51.277344 1000.089844 -82.320312 C 1031.226562 -82.320312 1062.371094 -82.320312 1093.511719 -82.320312 C 1093.9375 -52.675781 1097.765625 -23.792969 1103.277344 5.304688 " fill-opacity="1" fill-rule="nonzero"/><path fill="#fab6c0" d="M 1297.179688 1.125 C 1266.757812 -0.535156 1236.371094 -0.828125 1205.925781 -0.160156 C 1195.414062 -27.035156 1188.34375 -53.386719 1186.933594 -82.320312 C 1218.070312 -82.320312 1249.214844 -82.320312 1280.355469 -82.320312 C 1281.738281 -53.351562 1288.046875 -26.320312 1297.179688 1.125 " fill-opacity="1" fill-rule="nonzero"/><path fill="#fab6c0" d="M 1467.199219 11.101562 C 1437.96875 11.167969 1408.886719 9.765625 1379.75 7.5625 C 1376.113281 -22.363281 1373.660156 -52.160156 1373.777344 -82.320312 C 1404.914062 -82.320312 1436.0625 -82.320312 1467.199219 -82.320312 C 1467.199219 -51.183594 1467.199219 -20.039062 1467.199219 11.101562 " fill-opacity="1" fill-rule="nonzero"/><path fill="#fab6c0" d="M 75.636719 285.570312 C 41.289062 288.539062 6.9375 291.097656 -27.550781 291.367188 C -27.550781 260.226562 -27.550781 229.082031 -27.550781 197.945312 C 10.101562 197.453125 47.652344 192.03125 84.863281 186.683594 C 83.136719 219.773438 79.457031 252.664062 75.636719 285.570312 " fill-opacity="1" fill-rule="nonzero"/><path fill="#fab6c0" d="M 283.578125 273.058594 C 250.730469 273.058594 218.121094 273.640625 185.332031 275.917969 C 194.417969 240.425781 203.402344 204.949219 208.664062 168.65625 C 241.871094 164.695312 275.152344 160.992188 308.535156 164.828125 C 302.695312 201.472656 293.1875 237.257812 283.578125 273.058594 " fill-opacity="1" fill-rule="nonzero"/><path fill="#fab6c0" d="M 470.421875 273.058594 C 439.28125 273.058594 408.144531 273.058594 377 273.058594 C 377 241.917969 377 210.773438 377 179.636719 C 399.644531 185.914062 422.140625 191.371094 445.464844 194.441406 C 450.953125 221.667969 460.285156 247.265625 470.421875 273.058594 " fill-opacity="1" fill-rule="nonzero"/><path fill="#fab6c0" d="M 657.265625 273.058594 C 626.125 273.058594 594.988281 273.058594 563.84375 273.058594 C 556.511719 245.765625 549.644531 218.546875 545.398438 190.578125 C 586.03125 185.640625 626.492188 179.476562 667.03125 173.847656 C 664.664062 207.003906 661.019531 240.027344 657.265625 273.058594 " fill-opacity="1" fill-rule="nonzero"/><path fill="#fab6c0" d="M 844.109375 273.058594 C 812.96875 273.058594 781.832031 273.058594 750.6875 273.058594 C 761.738281 236.738281 772.816406 200.4375 778.90625 162.902344 C 804.453125 163.976562 829.078125 167.699219 853.875 173.847656 C 851.507812 207.003906 847.863281 240.027344 844.109375 273.058594 " fill-opacity="1" fill-rule="nonzero"/><path fill="#fab6c0" d="M 1030.953125 273.058594 C 999.8125 273.058594 968.675781 273.058594 937.53125 273.058594 C 930.199219 245.765625 923.332031 218.546875 919.085938 190.578125 C 948.164062 196.449219 976.5 196.667969 1005.996094 194.441406 C 1011.484375 221.667969 1020.816406 247.265625 1030.953125 273.058594 " fill-opacity="1" fill-rule="nonzero"/><path fill="#fab6c0" d="M 1217.796875 273.058594 C 1186.65625 273.058594 1155.519531 273.058594 1124.375 273.058594 C 1124.375 241.917969 1124.375 210.773438 1124.375 179.636719 C 1163.753906 173.988281 1203.125 168.332031 1242.753906 164.828125 C 1236.914062 201.472656 1227.40625 237.257812 1217.796875 273.058594 " fill-opacity="1" fill-rule="nonzero"/><path fill="#fab6c0" d="M 1383.542969 285.570312 C 1357.835938 282.265625 1332.1875 278.570312 1306.394531 275.917969 C 1315.480469 240.425781 1324.464844 204.949219 1329.726562 168.65625 C 1351.070312 173.585938 1371.773438 180.46875 1392.769531 186.683594 C 1391.042969 219.773438 1387.363281 252.664062 1383.542969 285.570312 " fill-opacity="1" fill-rule="nonzero"/><path fill="#fab6c0" d="M 208.664062 168.65625 C 167.292969 173.929688 126.117188 180.609375 84.863281 186.683594 C 86.007812 155.878906 85.414062 125.25 82.6875 94.546875 C 122.683594 89.234375 162.613281 83.386719 202.699219 78.773438 C 210.433594 109.226562 212.382812 137.429688 208.664062 168.65625 " fill-opacity="1" fill-rule="nonzero"/><path fill="#fab6c0" d="M 377 179.636719 C 354.367188 173.355469 331.855469 167.898438 308.535156 164.828125 C 312.761719 133.324219 311.078125 105.738281 302.085938 75.234375 C 325.898438 78.011719 348.980469 83.144531 372.175781 89.074219 C 376.507812 119.34375 377 149.105469 377 179.636719 " fill-opacity="1" fill-rule="nonzero"/><path fill="#fab6c0" d="M 545.398438 190.578125 C 512.242188 194.375 478.777344 198.410156 445.464844 194.441406 C 440.640625 164.203125 442.660156 133.441406 442.269531 102.914062 C 475.410156 106.382812 508.679688 102.929688 541.664062 99.375 C 542.988281 129.8125 541.613281 160.316406 545.398438 190.578125 " fill-opacity="1" fill-rule="nonzero"/><path fill="#fab6c0" d="M 778.90625 162.902344 C 741.394531 164.136719 704.191406 168.792969 667.03125 173.847656 C 668.941406 142.882812 667.773438 114.054688 661.667969 83.601562 C 698.285156 78.855469 734.960938 74.492188 771.90625 73.625 C 781.265625 103.585938 782.925781 131.796875 778.90625 162.902344 " fill-opacity="1" fill-rule="nonzero"/><path fill="#fab6c0" d="M 919.085938 190.578125 C 897.101562 185.90625 875.597656 179.585938 853.875 173.847656 C 855.785156 142.882812 854.617188 114.054688 848.511719 83.601562 C 870.773438 89.023438 892.835938 95.011719 915.351562 99.375 C 916.675781 129.8125 915.300781 160.316406 919.085938 190.578125 " fill-opacity="1" fill-rule="nonzero"/><path fill="#fab6c0" d="M 1124.375 179.636719 C 1085.003906 185.28125 1045.632812 190.9375 1005.996094 194.441406 C 1001.171875 164.203125 1003.191406 133.441406 1002.800781 102.914062 C 1041.886719 99.75 1080.714844 94.414062 1119.550781 89.074219 C 1123.882812 119.34375 1124.375 149.105469 1124.375 179.636719 " fill-opacity="1" fill-rule="nonzero"/><path fill="#fab6c0" d="M 1329.726562 168.65625 C 1300.707031 162.460938 1272.222656 162.609375 1242.753906 164.828125 C 1246.980469 133.324219 1245.296875 105.738281 1236.304688 75.234375 C 1265.839844 73.242188 1294.558594 73.519531 1323.761719 78.773438 C 1331.496094 109.226562 1333.445312 137.429688 1329.726562 168.65625 " fill-opacity="1" fill-rule="nonzero"/><path fill="#fab6c0" d="M 1467.199219 197.945312 C 1441.675781 197.144531 1417.382812 193.441406 1392.769531 186.683594 C 1393.914062 155.878906 1393.320312 125.25 1390.601562 94.546875 C 1415.992188 100.316406 1441.15625 103.730469 1467.199219 104.523438 C 1467.199219 135.660156 1467.199219 166.804688 1467.199219 197.945312 " fill-opacity="1" fill-rule="nonzero"/><path fill="#fab6c0" d="M 68.582031 476.601562 C 36.542969 477.710938 4.511719 478.535156 -27.550781 478.210938 C -27.550781 447.070312 -27.550781 415.925781 -27.550781 384.789062 C 3.769531 385.105469 35.089844 384.871094 66.414062 384.460938 C 65.269531 415.265625 65.863281 445.894531 68.582031 476.601562 " fill-opacity="1" fill-rule="nonzero"/><path fill="#fab6c0" d="M 265.132812 470.84375 C 232.769531 472.863281 200.382812 472.269531 167.976562 473.0625 C 160.226562 442.585938 158.28125 414.441406 162.003906 383.179688 C 194.257812 382.9375 226.429688 383.726562 258.621094 381.285156 C 254.390625 412.839844 256.632812 440.222656 265.132812 470.84375 " fill-opacity="1" fill-rule="nonzero"/><path fill="#fab6c0" d="M 488.871094 448.957031 C 451.484375 451.625 414.242188 455.738281 377 459.902344 C 377 428.761719 377 397.617188 377 366.480469 C 416.378906 360.832031 455.746094 355.175781 495.378906 351.671875 C 501.332031 384.644531 495.660156 416.535156 488.871094 448.957031 " fill-opacity="1" fill-rule="nonzero"/><path fill="#fab6c0" d="M 650.148438 464.121094 C 625.894531 459.949219 601.71875 455.371094 577.347656 451.894531 C 582.601562 419.394531 586.429688 388.332031 582.292969 355.535156 C 604.28125 360.199219 625.785156 366.527344 647.503906 372.277344 C 645.585938 403.261719 647.054688 433.257812 650.148438 464.121094 " fill-opacity="1" fill-rule="nonzero"/><path fill="#fab6c0" d="M 836.992188 464.121094 C 801.226562 467.90625 765.433594 471.3125 729.464844 472.488281 C 720.105469 442.5 718.457031 414.339844 722.476562 383.210938 C 759.988281 381.976562 797.1875 377.324219 834.347656 372.277344 C 832.429688 403.261719 833.898438 433.257812 836.992188 464.121094 " fill-opacity="1" fill-rule="nonzero"/><path fill="#fab6c0" d="M 1049.402344 448.957031 C 1016.496094 446.097656 983.847656 448.941406 951.035156 451.894531 C 956.289062 419.394531 960.117188 388.332031 955.980469 355.535156 C 989.179688 351.730469 1022.550781 347.835938 1055.910156 351.671875 C 1061.863281 384.644531 1056.191406 416.535156 1049.402344 448.957031 " fill-opacity="1" fill-rule="nonzero"/><path fill="#fab6c0" d="M 1199.351562 470.84375 C 1174.152344 468.398438 1149.289062 464.355469 1124.375 459.902344 C 1124.375 428.761719 1124.375 397.617188 1124.375 366.480469 C 1147.019531 372.757812 1169.515625 378.214844 1192.839844 381.285156 C 1188.609375 412.839844 1190.851562 440.222656 1199.351562 470.84375 " fill-opacity="1" fill-rule="nonzero"/><path fill="#fab6c0" d="M 1376.488281 476.601562 C 1347.335938 475.390625 1318.199219 473.972656 1289.039062 473.0625 C 1281.289062 442.585938 1279.34375 414.441406 1283.066406 383.179688 C 1313.484375 383.476562 1343.90625 384.019531 1374.320312 384.460938 C 1373.175781 415.265625 1373.769531 445.894531 1376.488281 476.601562 " fill-opacity="1" fill-rule="nonzero"/><path fill="#fab6c0" d="M 162.003906 383.179688 C 130.140625 383.476562 98.277344 384.019531 66.414062 384.460938 C 68.140625 351.371094 71.816406 318.484375 75.636719 285.570312 C 112.199219 282.308594 148.722656 278.671875 185.332031 275.917969 C 176.257812 311.410156 167.265625 346.886719 162.003906 383.179688 " fill-opacity="1" fill-rule="nonzero"/><path fill="#fab6c0" d="M 377 366.480469 C 337.628906 372.125 298.257812 377.78125 258.621094 381.285156 C 264.464844 344.640625 273.976562 308.859375 283.578125 273.058594 C 314.722656 273.058594 345.859375 273.058594 377 273.058594 C 377 304.195312 377 335.339844 377 366.480469 " fill-opacity="1" fill-rule="nonzero"/><path fill="#fab6c0" d="M 582.292969 355.535156 C 553.171875 349.769531 524.90625 349.445312 495.378906 351.671875 C 489.898438 324.445312 480.5625 298.847656 470.421875 273.058594 C 501.566406 273.058594 532.703125 273.058594 563.84375 273.058594 C 571.183594 300.347656 578.046875 327.566406 582.292969 355.535156 " fill-opacity="1" fill-rule="nonzero"/><path fill="#fab6c0" d="M 722.476562 383.210938 C 696.917969 382.136719 672.320312 378.421875 647.503906 372.277344 C 649.867188 339.109375 653.519531 306.089844 657.265625 273.058594 C 688.410156 273.058594 719.546875 273.058594 750.6875 273.058594 C 739.640625 309.375 728.566406 345.675781 722.476562 383.210938 " fill-opacity="1" fill-rule="nonzero"/><path fill="#fab6c0" d="M 955.980469 355.535156 C 915.351562 360.472656 874.886719 366.644531 834.347656 372.277344 C 836.710938 339.109375 840.355469 306.089844 844.109375 273.058594 C 875.253906 273.058594 906.390625 273.058594 937.53125 273.058594 C 944.871094 300.347656 951.734375 327.566406 955.980469 355.535156 " fill-opacity="1" fill-rule="nonzero"/><path fill="#fab6c0" d="M 1124.375 366.480469 C 1101.742188 360.207031 1079.230469 354.742188 1055.910156 351.671875 C 1050.429688 324.445312 1041.09375 298.847656 1030.953125 273.058594 C 1062.097656 273.058594 1093.234375 273.058594 1124.375 273.058594 C 1124.375 304.195312 1124.375 335.339844 1124.375 366.480469 " fill-opacity="1" fill-rule="nonzero"/><path fill="#fab6c0" d="M 1283.066406 383.179688 C 1253.011719 382.953125 1222.773438 384.3125 1192.839844 381.285156 C 1198.6875 344.640625 1208.195312 308.859375 1217.796875 273.058594 C 1247.457031 273.058594 1276.84375 273.257812 1306.394531 275.917969 C 1297.320312 311.410156 1288.328125 346.886719 1283.066406 383.179688 " fill-opacity="1" fill-rule="nonzero"/><path fill="#fab6c0" d="M 1467.199219 384.789062 C 1436.234375 385.089844 1405.28125 384.886719 1374.320312 384.460938 C 1376.046875 351.371094 1379.722656 318.484375 1383.542969 285.570312 C 1411.386719 288.945312 1439.136719 291.105469 1467.199219 291.367188 C 1467.199219 322.503906 1467.199219 353.648438 1467.199219 384.789062 " fill-opacity="1" fill-rule="nonzero"/><path fill="#fab6c0" d="M 85.40625 653.46875 C 48.09375 659.113281 10.285156 664.996094 -27.550781 665.054688 C -27.550781 633.914062 -27.550781 602.769531 -27.550781 571.632812 C 8.257812 571.023438 43.859375 567.503906 79.433594 563.582031 C 83.0625 593.511719 85.523438 623.304688 85.40625 653.46875 " fill-opacity="1" fill-rule="nonzero"/><path fill="#fab6c0" d="M 311.792969 630.011719 C 278.363281 626.175781 244.589844 630.035156 211.375 634.15625 C 209.988281 605.1875 203.691406 578.164062 194.558594 550.710938 C 227.597656 547.726562 260.1875 546.175781 293.34375 547.535156 C 303.027344 574.585938 309.882812 601.257812 311.792969 630.011719 " fill-opacity="1" fill-rule="nonzero"/><path fill="#fab6c0" d="M 442.210938 663.476562 C 419.605469 660.316406 398.503906 654.242188 377 646.746094 C 377 615.605469 377 584.460938 377 553.324219 C 404.867188 555.617188 432.726562 557.769531 460.660156 559.121094 C 451.976562 593.503906 444.230469 627.984375 442.210938 663.476562 " fill-opacity="1" fill-rule="nonzero"/><path fill="#fab6c0" d="M 668.601562 640.019531 C 626.617188 646.527344 584.746094 653.726562 542.621094 659.332031 C 544.597656 625.007812 550.246094 591.265625 556.726562 557.542969 C 591.5 555.640625 626.25 553.273438 661 551.105469 C 664.628906 580.683594 667.5 610.234375 668.601562 640.019531 " fill-opacity="1" fill-rule="nonzero"/><path fill="#fab6c0" d="M 855.445312 640.019531 C 831.34375 632.207031 806.832031 628.96875 781.558594 628.433594 C 780.632812 599.300781 773.382812 573.308594 762.023438 546.597656 C 790.691406 547.25 819.257812 548.925781 847.84375 551.105469 C 851.472656 580.683594 854.34375 610.234375 855.445312 640.019531 " fill-opacity="1" fill-rule="nonzero"/><path fill="#fab6c0" d="M 1002.742188 663.476562 C 973.746094 665.59375 944.792969 666.039062 916.308594 659.332031 C 918.285156 625.007812 923.933594 591.265625 930.414062 557.542969 C 960.777344 559.429688 990.789062 560.203125 1021.191406 559.121094 C 1012.507812 593.503906 1004.761719 627.984375 1002.742188 663.476562 " fill-opacity="1" fill-rule="nonzero"/><path fill="#fab6c0" d="M 1246.015625 630.011719 C 1205.214844 633.671875 1164.796875 640.253906 1124.375 646.746094 C 1124.375 615.605469 1124.375 584.460938 1124.375 553.324219 C 1158.757812 551.113281 1193.136719 548.941406 1227.5625 547.535156 C 1237.246094 574.585938 1244.105469 601.257812 1246.015625 630.011719 " fill-opacity="1" fill-rule="nonzero"/><path fill="#fab6c0" d="M 1393.3125 653.46875 C 1373.042969 646.792969 1353.164062 639.355469 1332.4375 634.15625 C 1331.050781 605.1875 1324.753906 578.164062 1315.621094 550.710938 C 1339.667969 554.257812 1363.441406 559.179688 1387.339844 563.582031 C 1390.96875 593.511719 1393.429688 623.304688 1393.3125 653.46875 " fill-opacity="1" fill-rule="nonzero"/><path fill="#fab6c0" d="M 194.558594 550.710938 C 156.121094 554.441406 117.800781 559.246094 79.433594 563.582031 C 75.738281 534.597656 71.515625 505.6875 68.582031 476.601562 C 101.710938 475.390625 134.835938 473.988281 167.976562 473.0625 C 175.480469 499.421875 185.507812 524.863281 194.558594 550.710938 " fill-opacity="1" fill-rule="nonzero"/><path fill="#fab6c0" d="M 377 553.324219 C 349.128906 551.027344 321.277344 548.886719 293.34375 547.535156 C 283.75 522.007812 273.183594 496.917969 265.132812 470.84375 C 302.519531 468.175781 339.753906 464.0625 377 459.902344 C 377 491.039062 377 522.183594 377 553.324219 " fill-opacity="1" fill-rule="nonzero"/><path fill="#fab6c0" d="M 556.726562 557.542969 C 524.648438 559.195312 492.765625 560.429688 460.660156 559.121094 C 470.160156 522.417969 480.589844 485.96875 488.871094 448.957031 C 518.78125 447.105469 547.644531 447.855469 577.347656 451.894531 C 571.257812 487.261719 563.683594 522.335938 556.726562 557.542969 " fill-opacity="1" fill-rule="nonzero"/><path fill="#fab6c0" d="M 762.023438 546.597656 C 728.316406 547.285156 694.65625 549.058594 661 551.105469 C 657.332031 522.117188 653.308594 493.171875 650.148438 464.121094 C 676.507812 468.433594 702.773438 471.445312 729.464844 472.488281 C 738.542969 497.996094 750.917969 521.949219 762.023438 546.597656 " fill-opacity="1" fill-rule="nonzero"/><path fill="#fab6c0" d="M 930.414062 557.542969 C 902.871094 555.675781 875.371094 553.289062 847.84375 551.105469 C 844.175781 522.117188 840.152344 493.171875 836.992188 464.121094 C 875.003906 460 912.972656 455.511719 951.035156 451.894531 C 944.945312 487.261719 937.371094 522.335938 930.414062 557.542969 " fill-opacity="1" fill-rule="nonzero"/><path fill="#fab6c0" d="M 1124.375 553.324219 C 1089.992188 555.542969 1055.617188 557.703125 1021.191406 559.121094 C 1030.691406 522.417969 1041.121094 485.96875 1049.402344 448.957031 C 1074.601562 451.402344 1099.464844 455.445312 1124.375 459.902344 C 1124.375 491.039062 1124.375 522.183594 1124.375 553.324219 " fill-opacity="1" fill-rule="nonzero"/><path fill="#fab6c0" d="M 1315.621094 550.710938 C 1286.21875 546.640625 1257.175781 546.472656 1227.5625 547.535156 C 1217.96875 522.007812 1207.402344 496.917969 1199.351562 470.84375 C 1229.179688 473.179688 1259.132812 472.269531 1289.039062 473.0625 C 1296.535156 499.421875 1306.570312 524.863281 1315.621094 550.710938 " fill-opacity="1" fill-rule="nonzero"/><path fill="#fab6c0" d="M 1467.199219 571.632812 C 1440.257812 571.074219 1413.871094 568.203125 1387.339844 563.582031 C 1383.644531 534.597656 1379.421875 505.6875 1376.488281 476.601562 C 1406.722656 477.785156 1436.9375 478.492188 1467.199219 478.210938 C 1467.199219 509.347656 1467.199219 540.492188 1467.199219 571.632812 " fill-opacity="1" fill-rule="nonzero"/><path fill="#fab6c0" d="M 68.582031 850.289062 C 36.542969 851.398438 4.511719 852.222656 -27.550781 851.898438 C -27.550781 820.757812 -27.550781 789.613281 -27.550781 758.476562 C 8.257812 757.867188 43.859375 754.347656 79.433594 750.425781 C 75.753906 783.707031 71.574219 816.929688 68.582031 850.289062 " fill-opacity="1" fill-rule="nonzero"/><path fill="#fab6c0" d="M 265.132812 844.53125 C 232.769531 846.550781 200.382812 845.957031 167.976562 846.75 C 175.707031 810.074219 185.59375 773.929688 194.558594 737.554688 C 227.597656 734.570312 260.1875 733.019531 293.34375 734.378906 C 283.84375 771.070312 273.417969 807.523438 265.132812 844.53125 " fill-opacity="1" fill-rule="nonzero"/><path fill="#fab6c0" d="M 488.871094 822.644531 C 451.484375 825.3125 414.242188 829.425781 377 833.589844 C 377 802.449219 377 771.304688 377 740.167969 C 404.867188 742.460938 432.726562 744.613281 460.660156 745.964844 C 470.246094 771.480469 480.820312 796.570312 488.871094 822.644531 " fill-opacity="1" fill-rule="nonzero"/><path fill="#fab6c0" d="M 650.148438 837.808594 C 625.894531 833.636719 601.71875 829.058594 577.347656 825.582031 C 571.382812 798.28125 563.726562 771.429688 556.726562 744.386719 C 591.5 742.484375 626.25 740.117188 661 737.949219 C 657.347656 771.230469 653.351562 804.476562 650.148438 837.808594 " fill-opacity="1" fill-rule="nonzero"/><path fill="#fab6c0" d="M 836.992188 837.808594 C 801.226562 841.597656 765.433594 845 729.464844 846.175781 C 738.867188 808.179688 751.042969 770.988281 762.023438 733.441406 C 790.691406 734.09375 819.257812 735.769531 847.84375 737.949219 C 844.191406 771.230469 840.195312 804.476562 836.992188 837.808594 " fill-opacity="1" fill-rule="nonzero"/><path fill="#fab6c0" d="M 1049.402344 822.644531 C 1016.496094 819.785156 983.847656 822.628906 951.035156 825.582031 C 945.070312 798.28125 937.414062 771.429688 930.414062 744.386719 C 960.777344 746.273438 990.789062 747.046875 1021.191406 745.964844 C 1030.777344 771.480469 1041.351562 796.570312 1049.402344 822.644531 " fill-opacity="1" fill-rule="nonzero"/><path fill="#fab6c0" d="M 1199.351562 844.53125 C 1174.152344 842.085938 1149.289062 838.042969 1124.375 833.589844 C 1124.375 802.449219 1124.375 771.304688 1124.375 740.167969 C 1158.757812 737.957031 1193.136719 735.785156 1227.5625 734.378906 C 1218.0625 771.070312 1207.636719 807.523438 1199.351562 844.53125 " fill-opacity="1" fill-rule="nonzero"/><path fill="#fab6c0" d="M 1376.488281 850.289062 C 1347.335938 849.078125 1318.199219 847.660156 1289.039062 846.75 C 1296.769531 810.074219 1306.65625 773.929688 1315.621094 737.554688 C 1339.667969 741.101562 1363.441406 746.023438 1387.339844 750.425781 C 1383.660156 783.707031 1379.480469 816.929688 1376.488281 850.289062 " fill-opacity="1" fill-rule="nonzero"/><path fill="#fab6c0" d="M 194.558594 737.554688 C 156.121094 741.285156 117.800781 746.089844 79.433594 750.425781 C 82.859375 718.160156 85.554688 685.941406 85.40625 653.46875 C 127.386719 646.960938 169.261719 639.761719 211.375 634.15625 C 209.957031 669.289062 202.734375 703.457031 194.558594 737.554688 " fill-opacity="1" fill-rule="nonzero"/><path fill="#fab6c0" d="M 377 740.167969 C 349.128906 737.871094 321.277344 735.730469 293.34375 734.378906 C 302.027344 699.988281 309.777344 665.511719 311.792969 630.011719 C 334.390625 633.164062 355.503906 639.246094 377 646.746094 C 377 677.882812 377 709.027344 377 740.167969 " fill-opacity="1" fill-rule="nonzero"/><path fill="#fab6c0" d="M 556.726562 744.386719 C 524.648438 746.039062 492.765625 747.273438 460.660156 745.964844 C 450.976562 718.914062 444.121094 692.230469 442.210938 663.476562 C 475.566406 667.488281 509.5 663.445312 542.621094 659.332031 C 544.492188 688.292969 549.753906 716.261719 556.726562 744.386719 " fill-opacity="1" fill-rule="nonzero"/><path fill="#fab6c0" d="M 762.023438 733.441406 C 728.316406 734.128906 694.65625 735.902344 661 737.949219 C 664.496094 705.367188 667.457031 672.777344 668.601562 640.019531 C 705.910156 634.375 743.722656 628.492188 781.558594 628.433594 C 780.699219 664.386719 771.804688 699.019531 762.023438 733.441406 " fill-opacity="1" fill-rule="nonzero"/><path fill="#fab6c0" d="M 930.414062 744.386719 C 902.871094 742.519531 875.371094 740.132812 847.84375 737.949219 C 851.339844 705.367188 854.300781 672.777344 855.445312 640.019531 C 875.710938 646.695312 895.589844 654.132812 916.308594 659.332031 C 918.179688 688.292969 923.441406 716.261719 930.414062 744.386719 " fill-opacity="1" fill-rule="nonzero"/><path fill="#fab6c0" d="M 1124.375 740.167969 C 1089.992188 742.386719 1055.617188 744.546875 1021.191406 745.964844 C 1011.507812 718.914062 1004.652344 692.230469 1002.742188 663.476562 C 1043.539062 659.816406 1083.960938 653.234375 1124.375 646.746094 C 1124.375 677.882812 1124.375 709.027344 1124.375 740.167969 " fill-opacity="1" fill-rule="nonzero"/><path fill="#fab6c0" d="M 1315.621094 737.554688 C 1286.21875 733.484375 1257.175781 733.316406 1227.5625 734.378906 C 1236.246094 699.988281 1243.996094 665.511719 1246.015625 630.011719 C 1275.082031 627.894531 1303.867188 627.601562 1332.4375 634.15625 C 1331.019531 669.289062 1323.796875 703.457031 1315.621094 737.554688 " fill-opacity="1" fill-rule="nonzero"/><path fill="#fab6c0" d="M 1467.199219 758.476562 C 1440.257812 757.917969 1413.871094 755.046875 1387.339844 750.425781 C 1390.769531 718.160156 1393.460938 685.941406 1393.3125 653.46875 C 1417.550781 661.132812 1441.816406 664.519531 1467.199219 665.054688 C 1467.199219 696.191406 1467.199219 727.335938 1467.199219 758.476562 " fill-opacity="1" fill-rule="nonzero"/></svg>