<svg xmlns="http://www.w3.org/2000/svg" xmlns:xlink="http://www.w3.org/1999/xlink" width="1920" zoomAndPan="magnify" viewBox="0 0 1440 809.999993" height="1080" preserveAspectRatio="xMidYMid meet" version="1.0"><path fill="#400d55" d="M 1.457031 -19.917969 L 1439.117188 -19.917969 L 1439.117188 1416.882812 L 1.457031 1416.882812 Z M 1.457031 -19.917969 " fill-opacity="1" fill-rule="nonzero"/><path fill="#300841" d="M 1029.628906 80.65625 C 1060.378906 90.714844 1093.425781 90.140625 1125.609375 89.566406 C 1166.125 88.992188 1206.644531 88.417969 1247.449219 87.84375 C 1271.300781 87.554688 1297.164062 86.40625 1314.691406 70.3125 C 1335.382812 51.632812 1336.816406 18.300781 1325.035156 -7.273438 C 1323.023438 -11.871094 1320.726562 -15.894531 1318.140625 -20.207031 L 1230.78125 -20.207031 C 1240.839844 -9 1246.585938 7.09375 1241.414062 20.886719 C 1235.09375 37.839844 1216.128906 45.886719 1198.3125 49.335938 C 1149.460938 59.105469 1096.296875 46.75 1056.640625 16.289062 C 1043.136719 5.945312 1031.066406 -6.699219 1021.296875 -20.492188 L 927.332031 -20.492188 C 929.917969 -13.597656 932.789062 -6.988281 936.238281 -0.664062 C 955.777344 37.265625 989.398438 67.726562 1029.628906 80.65625 Z M 1029.628906 80.65625 " fill-opacity="1" fill-rule="nonzero"/><path fill="#300841" d="M 1439.117188 -19.917969 L 1439.117188 60.832031 C 1421.300781 34.394531 1404.058594 7.382812 1387.679688 -19.917969 Z M 1439.117188 -19.917969 " fill-opacity="1" fill-rule="nonzero"/><path fill="#300841" d="M 1289.980469 183.53125 C 1341.703125 187.554688 1391.992188 202.785156 1439.117188 224.914062 L 1439.117188 282.097656 C 1346.015625 247.613281 1241.988281 267.730469 1144 285.257812 C 1044 303.074219 934.800781 315.71875 846.871094 265.429688 C 780.203125 227.5 735.660156 157.097656 716.984375 82.382812 C 708.363281 49.046875 704.914062 14.566406 704.625 -19.917969 L 821.867188 -19.917969 C 828.191406 12.265625 840.546875 43.300781 858.652344 70.886719 C 894.859375 126.636719 952.90625 167.441406 1017.5625 182.382812 C 1106.355469 203.359375 1199.171875 176.636719 1289.980469 183.53125 Z M 1289.980469 183.53125 " fill-opacity="1" fill-rule="nonzero"/><path fill="#300841" d="M 1439.117188 431.8125 L 1439.117188 561.125 C 1404.347656 542.734375 1368.140625 528.078125 1329.347656 519.746094 C 1158.367188 482.675781 981.640625 574.054688 808.652344 549.34375 C 650.027344 526.640625 516.40625 403.9375 456.347656 255.371094 C 421 168.304688 408.933594 74.046875 414.390625 -19.917969 L 569.855469 -19.917969 C 556.921875 58.242188 561.234375 138.992188 583.074219 215.144531 C 603.1875 284.683594 639.109375 351.925781 697.441406 394.457031 C 781.640625 455.949219 895.71875 455.664062 998.59375 438.707031 C 1101.46875 421.753906 1204.058594 390.71875 1307.796875 399.628906 C 1352.910156 403.9375 1396.875 415.144531 1439.117188 431.8125 Z M 1439.117188 431.8125 " fill-opacity="1" fill-rule="nonzero"/><path fill="#300841" d="M 978.480469 718.597656 C 901.179688 715.722656 824.742188 732.101562 748.015625 740.4375 C 671.292969 748.769531 590.542969 748.769531 520.714844 716.011719 C 450.601562 682.964844 398.875 620.320312 331.34375 582.390625 C 259.21875 541.871094 170.136719 532.386719 91.113281 556.8125 C 58.929688 566.871094 28.46875 582.390625 1.167969 602.214844 L 1.167969 741.585938 C 13.523438 724.917969 27.894531 709.402344 43.984375 696.183594 C 106.34375 643.882812 193.414062 622.332031 273.296875 639.285156 C 439.394531 674.632812 547.441406 858.253906 716.121094 878.945312 C 777.617188 886.414062 839.398438 870.609375 901.179688 866.011719 C 962.960938 861.414062 1031.929688 870.898438 1073.308594 917.164062 C 1118.136719 967.164062 1115.839844 1044.464844 1093.425781 1107.96875 C 1071.011719 1171.1875 1031.929688 1227.511719 1008.652344 1290.445312 C 993.996094 1330.386719 986.8125 1375.789062 994.285156 1416.882812 L 1175.609375 1416.882812 C 1167.277344 1372.917969 1169 1326.078125 1176.472656 1281.535156 C 1189.976562 1200.210938 1220.148438 1122.339844 1233.082031 1040.726562 C 1246.011719 959.117188 1238.542969 868.886719 1185.953125 805.378906 C 1136.527344 746.183594 1055.78125 721.183594 978.480469 718.597656 Z M 978.480469 718.597656 " fill-opacity="1" fill-rule="nonzero"/><path fill="#300841" d="M 819.570312 982.96875 C 769.855469 980.667969 720.144531 992.738281 670.429688 988.429688 C 578.1875 980.667969 501.175781 918.886719 426.75 864 C 352.324219 809.117188 264.964844 756.242188 173.585938 770.035156 C 105.769531 780.09375 46.859375 827.21875 12.089844 886.414062 C 8.351562 892.738281 4.90625 899.058594 1.742188 905.382812 L 1.742188 1063.71875 C 13.523438 1029.808594 28.753906 997.625 48.582031 967.453125 C 99.160156 891.589844 188.816406 834.976562 278.757812 849.632812 C 351.75 861.703125 409.21875 916.015625 462.957031 967.164062 C 516.691406 1018.027344 577.039062 1070.613281 650.601562 1077.222656 C 684.796875 1080.097656 719.28125 1072.625 753.476562 1076.074219 C 787.671875 1079.523438 824.457031 1098.199219 832.214844 1131.820312 C 841.410156 1172.339844 805.203125 1207.398438 777.902344 1238.71875 C 733.9375 1288.433594 706.351562 1351.363281 697.730469 1416.882812 L 830.488281 1416.882812 C 825.605469 1352.226562 840.261719 1285.847656 873.882812 1230.386719 C 890.546875 1202.800781 911.8125 1177.511719 926.753906 1149.0625 C 941.699219 1120.328125 950.605469 1086.132812 940.261719 1055.382812 C 924.167969 1007.96875 869.285156 985.265625 819.570312 982.96875 Z M 819.570312 982.96875 " fill-opacity="1" fill-rule="nonzero"/><path fill="#300841" d="M 131.628906 298.476562 C 153.183594 304.800781 178.46875 304.222656 195.425781 289.28125 C 213.527344 273.476562 216.402344 245.601562 209.792969 222.613281 C 203.183594 199.625 189.101562 179.511719 176.457031 159.109375 C 142.835938 104.507812 120.421875 43.300781 110.367188 -19.917969 L 1.457031 -19.917969 L 1.457031 -10.148438 C 21.285156 50.199219 53.753906 106.234375 96.285156 153.359375 C 107.203125 165.429688 118.699219 177.210938 125.019531 191.867188 C 131.34375 206.808594 130.769531 225.773438 119.273438 236.980469 C 108.640625 247.039062 91.976562 247.902344 77.894531 243.589844 C 63.8125 239.28125 51.746094 230.949219 38.8125 224.050781 C 27.03125 217.730469 14.386719 212.84375 1.457031 209.109375 L 1.457031 249.339844 C 25.308594 252.785156 48.871094 259.683594 70.710938 269.742188 C 91.113281 279.511719 110.078125 291.867188 131.628906 298.476562 Z M 131.628906 298.476562 " fill-opacity="1" fill-rule="nonzero"/><path fill="#300841" d="M 272.148438 453.363281 C 300.023438 464.859375 326.460938 480.089844 355.769531 487.273438 C 385.082031 494.167969 419.277344 491.007812 440.253906 469.742188 C 463.53125 446.179688 463.820312 407.386719 451.75 376.351562 C 439.394531 345.605469 416.980469 320.027344 397.726562 293.015625 C 333.644531 203.359375 304.910156 89.855469 314.390625 -19.917969 L 209.21875 -19.917969 C 205.480469 92.441406 249.160156 206.808594 329.910156 285.546875 C 348.875 303.9375 369.851562 320.890625 382.496094 343.878906 C 395.140625 366.867188 397.4375 398.476562 379.335938 417.445312 C 363.53125 434.109375 336.804688 436.121094 314.679688 429.226562 C 292.550781 422.328125 273.585938 408.535156 253.757812 396.46875 C 178.757812 351.0625 87.375 334.398438 0.882812 347.902344 L 0.882812 467.15625 C 84.214844 424.914062 185.652344 418.019531 272.148438 453.363281 Z M 272.148438 453.363281 " fill-opacity="1" fill-rule="nonzero"/><path fill="#300841" d="M 1282.21875 642.445312 C 1293.425781 644.457031 1303.773438 650.207031 1313.542969 655.953125 C 1336.242188 669.457031 1358.082031 684.402344 1379.921875 699.34375 C 1399.75 712.851562 1419.289062 726.355469 1439.117188 739.863281 L 1439.117188 673.769531 C 1425.898438 668.882812 1412.679688 664 1400.039062 658.25 C 1366.703125 643.023438 1336.816406 620.609375 1302.046875 609.402344 C 1267.277344 597.90625 1224.171875 600.492188 1200.898438 628.941406 C 1177.332031 657.675781 1183.65625 701.355469 1202.046875 733.539062 C 1220.4375 765.722656 1248.597656 791.300781 1269.289062 822.335938 C 1280.78125 839.574219 1289.980469 858.542969 1301.761719 875.496094 C 1313.542969 892.738281 1328.773438 908.253906 1348.3125 915.726562 C 1376.472656 926.359375 1410.09375 915.152344 1428.773438 891.875 C 1432.796875 886.992188 1435.671875 881.242188 1439.117188 876.070312 L 1439.117188 803.941406 C 1435.671875 806.53125 1432.507812 809.402344 1430.210938 811.988281 C 1420.726562 821.757812 1412.679688 838.714844 1398.886719 843.023438 C 1379.921875 849.058594 1362.679688 831.242188 1350.898438 819.171875 C 1333.082031 800.78125 1315.839844 782.390625 1298.023438 764 C 1283.082031 748.195312 1267.851562 732.390625 1255.496094 714.574219 C 1248.597656 704.804688 1242.5625 694.171875 1240.550781 682.675781 C 1238.539062 670.894531 1241.414062 657.964844 1250.035156 649.917969 C 1258.367188 642.160156 1271.011719 640.433594 1282.21875 642.445312 Z M 1282.21875 642.445312 " fill-opacity="1" fill-rule="nonzero"/><path fill="#300841" d="M 928.480469 639 C 814.398438 640.148438 700.601562 602.792969 609.222656 534.398438 C 591.117188 520.894531 573.300781 505.949219 551.464844 500.777344 C 529.625 495.605469 502.324219 504.515625 495.429688 525.777344 C 491.691406 537.5625 494.851562 551.066406 501.460938 561.410156 C 508.070312 572.042969 517.84375 580.089844 527.898438 587.5625 C 591.695312 635.261719 671.003906 658.539062 750.316406 666.296875 C 805.203125 671.757812 860.664062 670.320312 915.546875 666.871094 C 928.480469 666.011719 973.019531 670.320312 977.617188 652.21875 C 982.214844 634.976562 939.398438 639 928.480469 639 Z M 928.480469 639 " fill-opacity="1" fill-rule="nonzero"/></svg>