<svg xmlns="http://www.w3.org/2000/svg" xmlns:xlink="http://www.w3.org/1999/xlink" width="512" zoomAndPan="magnify" viewBox="0 0 384 383.999986" height="512" preserveAspectRatio="xMidYMid meet" version="1.0"><defs><clipPath id="c21a6298c0"><path d="M 2.777344 5.554688 L 381.527344 5.554688 L 381.527344 384 L 2.777344 384 Z M 2.777344 5.554688 " clip-rule="nonzero"/></clipPath></defs><g clip-path="url(#c21a6298c0)"><path fill="#72109b" d="M 230.957031 216.535156 C 257.101562 199.429688 302.15625 197.203125 381.222656 194.777344 C 302.15625 192.351562 257.101562 190.125 230.957031 173.015625 C 238.75 155.4375 255.535156 135.066406 281.34375 105.429688 C 251.707031 131.238281 231.339844 148.027344 213.761719 155.816406 C 196.652344 129.671875 194.425781 84.617188 192 5.554688 C 189.574219 84.617188 187.347656 129.671875 170.238281 155.816406 C 152.660156 148.027344 132.289062 131.238281 102.652344 105.429688 C 128.460938 135.066406 145.25 155.4375 153.039062 173.015625 C 126.898438 190.125 81.839844 192.351562 2.777344 194.777344 C 81.839844 197.203125 126.898438 199.429688 153.039062 216.535156 C 145.25 234.117188 128.460938 254.484375 102.652344 284.121094 C 132.289062 258.3125 152.660156 241.527344 170.238281 233.734375 C 187.347656 259.878906 189.574219 304.933594 192 384 C 194.425781 304.933594 196.652344 259.878906 213.761719 233.734375 C 231.339844 241.527344 251.707031 258.3125 281.34375 284.121094 C 255.535156 254.484375 238.75 234.113281 230.957031 216.535156 Z M 230.957031 216.535156 " fill-opacity="1" fill-rule="nonzero"/></g></svg>